<svg xmlns="http://www.w3.org/2000/svg" version="1.1" height="87" viewBox="0 0 160 87" fill="#262262" width="160">
<path id="logo" d="m157.7 84.21c-0.24 0.74-0.66 1.78-1.95 1.78-0.41
0-0.67-0.05-1.04-0.12l0.07-1c0.19 0.07 0.38 0.1 0.59 0.1 0.48 0 0.79-0.57
0.91-0.91l0.09-0.29-1.9-5.43h1.54l1.14 4.07 1.09-4.07h1.43l-1.93
5.87zm-7.04-5.97c-1.55 0-2.16 1.31-2.16 2.73 0 1.33 0.6 2.66 2.14 2.66 0.67 0
1.29-0.35 1.66-0.9v0.57c0 1.07-0.53 1.73-1.69 1.73-0.57
0-1.12-0.14-1.6-0.38l-0.07 1.1c0.64 0.21 1.31 0.28 1.98 0.28 1.78 0 2.83-0.91
2.83-2.73v-4.93h-1.41v0.86c-0.33-0.66-0.95-0.98-1.67-0.98zm0.52 1.02c0.91 0
1.14 0.98 1.14 1.71 0 0.71-0.24 1.64-1.14 1.64-0.93 0-1.12-0.93-1.12-1.64
0-0.76 0.17-1.71 1.12-1.71zm-6.14-1.02c-1.62 0-2.76 1-2.76 2.73 0 1.69 1.02
2.78 2.76 2.78 1.71 0 2.76-1.07 2.76-2.78 0-1.74-1.05-2.73-2.76-2.73zm0
0.98c0.95 0 1.21 0.93 1.21 1.73 0 0.88-0.29 1.78-1.21 1.78-0.9
0-1.21-0.91-1.21-1.78 0-0.79 0.29-1.73
1.21-1.73zm-5.23-3.19h1.45v7.57h-1.45zm-3.78 2.19c-1.62 0-2.76 1-2.76 2.73 0
1.69 1.02 2.78 2.76 2.78 1.71 0 2.76-1.07 2.76-2.78
0-1.74-1.07-2.73-2.76-2.73zm0 0.98c0.95 0 1.21 0.93 1.21 1.73 0 0.88-0.29
1.78-1.21 1.78-0.9 0-1.21-0.91-1.21-1.78 0-0.79 0.29-1.73
1.21-1.73zm-5.21-0.88h1.45v5.28h-1.45v-5.28zm0-2.14h1.45v1.17h-1.45v-1.17zm-6.47
0.41v7h2.55c1.38 0 2.78-0.31 2.78-1.97 0-0.95-0.67-1.52-1.55-1.66 0.85-0.19
1.38-0.74 1.38-1.64 0-1.35-1.17-1.73-2.31-1.73h-2.85zm1.48 0.95h0.88c0.64 0
1.26 0.22 1.26 0.97 0 0.83-0.69 1.04-1.38 1.04h-0.74v-2zm0 2.9h0.67c0.76 0 1.6
0.17 1.6 1.1 0 0.88-0.83 1.09-1.54
1.09h-0.74v-2.19zm-5.52-0.88c-0.14-0.05-0.31-0.07-0.45-0.07-0.98 0-1.29
0.93-1.29 1.76v2.35h-1.45v-4.09c0-0.38-0.02-0.78-0.05-1.17h1.36l0.03
1.02c0.24-0.59 0.76-1.14 1.48-1.14 0.14 0 0.28 0.02 0.41 0.05l-0.03
1.29zm-6.92-1.35c-0.57 0-1.29 0.16-1.85 0.35l0.07 0.98c0.5-0.29 1.05-0.41
1.59-0.41 0.76 0 1.22 0.31 1.22 1.05v0.17c-0.21-0.02-0.45-0.02-0.64-0.02-1.48
0-2.83 0.47-2.83 1.86 0 1.05 0.81 1.52 1.78 1.52 0.67 0 1.33-0.36
1.67-0.93l0.03
0.81h1.41c-0.03-0.36-0.05-0.71-0.05-1.24v-2.09c0-1.54-1.02-2.05-2.43-2.05zm0.85
2.86h0.19v0.26c0 0.78-0.31 1.47-1.21 1.47-0.45 0-0.86-0.21-0.86-0.72 0-0.91
1.14-1 1.88-1zm-5.66-5.05h1.45v7.57h-1.45zm-2.62 7.57-0.03-0.88c-0.35 0.66-0.97
1-1.71 1-1.28 0-1.78-0.78-1.78-1.98v-3.4h1.45v3.07c0 0.62 0.09 1.26 0.86 1.26
0.81 0 1.05-0.74 1.05-1.43v-2.9h1.45v4.09c0 0.4 0.02 0.79 0.05 1.19h-1.36zm-6
0.14c-1.73 0-2.79-1.05-2.79-2.78 0-1.71 1.17-2.73 2.83-2.73 0.5 0 1.02 0.07 1.5
0.22l-0.07 1.04c-0.33-0.16-0.71-0.26-1.09-0.26-1.04 0-1.64 0.72-1.64 1.73 0
0.98 0.57 1.78 1.6 1.78 0.4 0 0.78-0.09 1.14-0.26l0.05 1.04c-0.5 0.17-1.04
0.22-1.55 0.22m-5.83-5.49c-1.52 0-2.57 1.16-2.57 2.73 0 1.74 0.95 2.78 2.73
2.78 0.62 0 1.35-0.07 1.93-0.28l-0.07-0.99c-0.45 0.24-1.09 0.36-1.59 0.36-0.9
0-1.57-0.57-1.57-1.48h3.5v-0.33c0-1.6-0.67-2.78-2.36-2.78zm0.02 0.86c0.79 0
1.04 0.79 1.04 1.47h-2.17c0-0.62 0.35-1.47
1.14-1.47zm-5.04-3.07h1.45v7.57h-1.45zm-3.78 2.19c-1.62 0-2.76 1-2.76 2.73 0
1.69 1.02 2.78 2.76 2.78 1.71 0 2.76-1.07 2.76-2.78
0-1.74-1.07-2.73-2.76-2.73zm0 0.98c0.95 0 1.21 0.93 1.21 1.73 0 0.88-0.29
1.78-1.21 1.78-0.9 0-1.21-0.91-1.21-1.78 0-0.79 0.29-1.73
1.21-1.73zm-3.88-2.62v7h-1.43l-0.02-6-2.05 6h-1.36l-2.05-6v6h-1.38v-7h2.33l1.83
5.33 1.81-5.33zm-12.15 0.38c-0.16-0.07-0.35-0.09-0.52-0.09-0.62 0-0.71 0.6-0.71
0.91v0.52h1.14v0.97h-1.12v4.3h-1.47v-4.3h-0.98v-0.97h0.98v-0.53c0-1.04
0.36-1.86 1.71-1.86 0.33 0 0.71 0.02 1.04 0.12l-0.07 0.93zm-6.93 1.24c-1.62
0-2.76 1-2.76 2.73 0 1.69 1.02 2.78 2.76 2.78 1.71 0 2.76-1.07 2.76-2.78
0-1.74-1.07-2.73-2.76-2.73zm0 0.98c0.95 0 1.21 0.93 1.21 1.73 0 0.88-0.29
1.78-1.21 1.78-0.9 0-1.21-0.91-1.21-1.78 0-0.79 0.29-1.73
1.21-1.73zm-8.3-3.19h1.45v7.57h-1.45zm-3.71 2.19c-0.57 0-1.29 0.16-1.85
0.35l0.07 0.98c0.5-0.29 1.05-0.41 1.59-0.41 0.76 0 1.22 0.31 1.22
1.05v0.17c-0.21-0.02-0.45-0.02-0.64-0.02-1.48 0-2.83 0.47-2.83 1.86 0 1.05 0.81
1.52 1.78 1.52 0.67 0 1.33-0.36 1.67-0.93l0.03
0.81h1.41c-0.03-0.36-0.05-0.71-0.05-1.24v-2.09c0-1.54-1.02-2.05-2.43-2.05zm0.85
2.86h0.19v0.26c0 0.78-0.31 1.47-1.21 1.47-0.45 0-0.86-0.21-0.86-0.72 0-0.91
1.14-1 1.88-1zm-5.66 2.5v-3.07c0-0.62-0.1-1.26-0.88-1.26-0.81 0-1.05 0.74-1.05
1.43v2.92h-1.45v-4.09c0-0.4-0.02-0.79-0.05-1.17h1.36l0.02 0.88c0.35-0.66
0.98-0.98 1.71-0.98 1.28 0 1.78 0.76 1.78
1.97v3.42h-1.45zm-4.23-4.04c-0.14-0.05-0.31-0.07-0.45-0.07-0.98 0-1.29
0.93-1.29 1.76v2.35h-1.45v-4.09c0-0.38-0.02-0.78-0.05-1.17h1.36l0.03
1.02c0.24-0.59 0.76-1.14 1.48-1.14 0.16 0 0.28 0.02 0.41 0.05l-0.03 1.29zm-5.83
4.04-0.03-0.88c-0.35 0.66-0.97 1-1.71 1-1.28
0-1.78-0.78-1.78-1.98v-3.4h1.45v3.07c0 0.62 0.09 1.26 0.86 1.26 0.81 0
1.05-0.74 1.05-1.43v-2.9h1.45v4.09c0 0.4 0.02 0.79 0.05
1.19h-1.36zm-7.25-5.33c-1.62 0-2.76 1-2.76 2.73 0 1.69 1.02 2.78 2.76 2.78 1.71
0 2.76-1.07 2.76-2.78 0-1.74-1.05-2.73-2.76-2.73zm0 0.98c0.95 0 1.21 0.93 1.21
1.73 0 0.88-0.29 1.78-1.21 1.78-0.9 0-1.21-0.91-1.21-1.78 0-0.79 0.29-1.73
1.21-1.73zm-5.73 4.5c-0.4 0-0.78-0.05-1.16-0.17l0.05-1.14c0.19 0.09 0.38 0.12
0.59 0.12 0.71 0 1-0.5 1-1.14v-4.78h1.55v5.02c0 1.31-0.74 2.1-2.05
2.1m77.97-82.68l-6.47 7.42h6.47v47.77l5.97 7.07h2.07v-2.79c1.38 1.04 3.04 1.88
4.99 2.52 1.93 0.66 4.02 0.97 6.23 0.97 3.19 0 6.12-0.57 8.8-1.71 2.67-1.14
4.99-2.74 6.92-4.85 1.93-2.1 3.45-4.61 4.55-7.52 1.09-2.92 1.64-6.18 1.64-9.76
0-3.36-0.48-6.43-1.47-9.21-0.97-2.78-2.35-5.14-4.12-7.13-1.76-1.98-3.88-3.52-6.31-4.62-2.45-1.09-5.12-1.64-8.06-1.64-2.38
0-4.71 0.43-6.95 1.29s-4.31 2.04-6.21 3.5v-21.31h-8.02zm19.06 23.6c1.9 0 3.67
0.36 5.35 1.05 1.67 0.71 3.12 1.73 4.38 3.09 1.26 1.35 2.24 3 2.97 4.95 0.72
1.95 1.1 4.19 1.1 6.73 0 2.76-0.4 5.18-1.17 7.25-0.78 2.07-1.81 3.8-3.11
5.19-1.29 1.4-2.79 2.43-4.49 3.12-1.71 0.69-3.47 1.04-5.3 1.04-2.71
0-4.95-0.36-6.73-1.1s-3.14-1.57-4.05-2.52v-24.01c1.41-1.47 3.07-2.62
5-3.48s3.93-1.29 6.04-1.29zm-92-5.99h8.04v5.21h0.09c0.98-0.83 2-1.62 3.09-2.35
1.09-0.72 2.21-1.36 3.38-1.91s2.42-0.98 3.69-1.29c1.28-0.31 2.61-0.47 3.99-0.47
3.23 0 5.99 0.59 8.32 1.79 2.33 1.19 4.12 3.05 5.38 5.59 1.09-0.98 2.24-1.91
3.45-2.83 1.21-0.91 2.47-1.69 3.78-2.35s2.67-1.19 4.12-1.6c1.43-0.4 2.93-0.6
4.49-0.6 2.42 0 4.59 0.33 6.5 0.98 1.93 0.66 3.55 1.67 4.92 3.02 1.35 1.35 2.38
3.09 3.09 5.19s1.05 4.61 1.05 7.49v21.39l6.21
7.42h-20.87v-7.42h6.3v-20.39c0-3.42-0.86-6.02-2.59-7.78s-4.21-2.66-7.45-2.66c-1.91
0-3.9 0.47-5.9 1.38-2.02 0.91-3.74 2.09-5.18
3.5v25.96h6.18v7.42h-20.82v-7.42h6.3v-20.39c0-3.42-0.86-6.02-2.61-7.78-1.74-1.76-4.23-2.66-7.49-2.66-1.86
0-3.74 0.45-5.64 1.33-1.9 0.9-3.69 2-5.38
3.33v26.17h6.3v7.42h-20.87v-7.42h6.21v-29.83h-6.21l6.19-7.42zm-19-12.57c0-0.69
0.14-1.33 0.41-1.93 0.27-0.61 0.63-1.14 1.1-1.59 0.46-0.47 1-0.83 1.62-1.11
0.62-0.27 1.27-0.41 2-0.41 0.69 0 1.35 0.14 1.97 0.41 0.62 0.28 1.16 0.64 1.62
1.1 0.47 0.47 0.83 0.98 1.1 1.59 0.28 0.6 0.41 1.24 0.41 1.93 0 0.72-0.14
1.4-0.41 2.02-0.28 0.64-0.64 1.19-1.1 1.66-0.47 0.5-1 0.86-1.62 1.14s-1.28
0.41-1.97 0.41c-0.72
0-1.38-0.14-2-0.41-0.62-0.28-1.16-0.64-1.62-1.12-0.47-0.47-0.83-1.02-1.09-1.66-0.28-0.64-0.42-1.31-0.42-2.03m-0.05
12.56h13.53l-5.5 7.14v40.99c0 2.55-0.33 4.87-1 6.92-0.66 2.05-1.62 3.81-2.86
5.26-1.26 1.45-2.78 2.59-4.59 3.38-1.81 0.81-3.88 1.24-6.21
1.29l-0.82-6c2.55-0.38 4.42-1.59 5.59-3.64s1.74-4.76 1.74-8.12l0.12-47.22z"/>
</svg>
