<svg version="1.1" id="Layer_1" xmlns="http://www.w3.org/2000/svg" x="0" y="0" width="444" height="100.3" xml:space="preserve"><style>.st0{fill:#fff}</style><path class="st0" d="M2.2 31.9c0 3.4-.2 6.9-1.1 9.5h9.6c-.8-2.5-.9-5.6-.9-9.2V19.4c1.2-1.1 2.9-1.7 5-1.7 2.8 0 3.9 1.2 3.9 3.8v10.7c0 3.7-.1 6.7-.9 9.2h9.6c-.8-2.6-1.1-6.1-1.1-9.5V20.7c0-5.6-1.8-8.6-7.7-8.6-4.6 0-7.7 2.9-9 6.4h-.1v-6.2l-.1-.1L0 14.9c1.2 1.3 2.2 3.8 2.2 6.6v10.4zM43.5 36.8c.2 2.7 2.1 5.2 5.7 5.2 3.1 0 4.7-1.5 5.5-3.9.2-.5.3-1 .5-1.9-.3.3-1.2.4-1.5.4-1.8 0-2.7-.7-2.7-3V21.1c0-6-2.8-9-10.2-9-5.7 0-11.2 2.8-11.2 6.8 0 2 1.5 3.1 3.1 3.1 1.9 0 3-1 3.6-3.8.4-1.9 1.1-2.7 3-2.7 3 0 4 1.6 4 4.9v.6c0 2.9-2.2 4.1-6.3 5.7-4.3 1.7-8.4 3.7-8.4 8.2 0 4.3 3 7.1 7.6 7.1 3.7.1 6.1-1.5 7.3-5.2zm-7.3-3c0-3.1 1-4.5 3.7-5.8 2.1-1 2.9-1.5 3.4-2.4V36c-.6 1.1-1.3 1.9-3.5 1.9-2.2-.1-3.6-1.7-3.6-4.1zM56.8 33.7c0 5.4 2.3 8.4 8.2 8.4 3.4 0 5.9-1.5 6.9-3.8.4-.8.5-1.4.6-2.4-.9.5-2 .8-4.1.8-2.7 0-4-1.2-4-4.2V16.8H71l.7-4h-7.3V6.1l-.2-.1L54 16.6v.2h2.8v16.9zM74.1 32.6c0 5.6 2.3 9.4 8.5 9.4 4.9 0 7.3-2.6 8.5-6.3h.1v5.7h8.6c-.7-2.1-1.2-4.1-1.2-8.6V12.6l-8.9.9c.9 2.5 1.2 5 1.2 7.9v13.4c-.9 1.4-2.7 2.2-5.1 2.2-2.9 0-4-1.6-4-4.6V12.6l-8.9.9c1 2.5 1.2 5 1.2 7.9v11.2zM118.7 20.1c2.3 0 3.6-1.7 3.6-4 0-2.4-1.5-4-4.5-4-3.2 0-5.7 2.1-6.9 7.4h-.1v-7.2l-.1-.1-9.4 2.7c1.2 1.3 2.2 3.8 2.2 6.6v10.3c0 3.4-.2 6.9-1.1 9.5h9.6c-.7-2.6-1-6.1-1-9.7v-7.1c0-4.4 1.7-6.9 3.2-6.9.6 0 1.1.6 1.7 1.2.7.7 1.5 1.3 2.8 1.3zM134.9 42.1c6.4 0 9.8-4 11-8.3l-.2-.5c-1.3 1.3-3.4 3.2-7.9 3.2-5 0-8.7-2.8-8.7-10v-.8H146c0-8.9-3.4-13.6-10.9-13.6-7.8 0-13.6 6.3-13.6 15.8 0 9.3 6.1 14.2 13.4 14.2zm-.1-26.5c3.2 0 3.9 2.7 4 7.3l-9.6.8c.4-5.5 2.3-8.1 5.6-8.1zM164.3 38.6c-3.5 0-6.8-2.9-9.1-5.8h-.2l.3 7.3c2.4 1.3 5.7 2 9.1 2 8.1 0 10.7-4.8 10.7-9.7 0-4.7-3-7-7.9-9-4.6-2-5.7-2.8-5.7-4.9s1.5-2.9 3.8-2.9c3.4 0 5.5 1.7 7.6 4h.2l-.3-6c-1.8-.8-3.9-1.4-7.7-1.4-5.7 0-10 3.3-10 8.8 0 4.8 3.1 7 7.8 9 4.5 1.9 5.8 2.6 5.8 5.1-.1 2.3-.9 3.5-4.4 3.5zM186.8 42.1c3.4 0 5.9-1.5 6.9-3.8.4-.8.5-1.4.6-2.4-.9.5-2 .8-4.1.8-2.7 0-4-1.2-4-4.2V16.8h6.6l.7-4h-7.3V6.1l-.1-.1-10.3 10.5v.2h2.8v16.9c0 5.5 2.3 8.5 8.2 8.5zM209 18.9c.6.6 1.4 1.2 2.7 1.2 2.3 0 3.6-1.7 3.6-4 0-2.4-1.5-4-4.5-4-3.2 0-5.7 2.1-6.9 7.4h-.1v-7.2l-.1-.1-9.4 2.7c1.2 1.3 2.2 3.8 2.2 6.6v10.3c0 3.4-.2 6.9-1.1 9.5h9.6c-.7-2.6-1-6.1-1-9.7v-7.1c0-4.4 1.7-6.9 3.2-6.9.7.1 1.1.7 1.8 1.3zM234 35.7h.1v5.7h8.6c-.7-2.1-1.2-4.1-1.2-8.6V12.6l-8.9.9c.9 2.5 1.2 5 1.2 7.9v13.4c-1.1 1.4-2.9 2.2-5.3 2.2-2.9 0-4-1.6-4-4.6V12.6l-8.9.9c1 2.5 1.2 5 1.2 7.9v11.2c0 5.6 2.3 9.4 8.5 9.4 5.1 0 7.5-2.6 8.7-6.3zM260.6 36.4c-5 0-8.2-3.1-8.2-10.5 0-6.4 2.3-10.3 6-10.3 1.9 0 2.5.4 2.8 2.3.4 2.5 1.3 3.8 3.3 3.8 2.2 0 3.5-1.4 3.5-3.6 0-3-2.8-5.9-9.3-5.9-7 0-13.8 5.6-13.8 15.6 0 9 5.2 14.4 12.9 14.4 6.6 0 9.8-4.5 10.6-7.9l-.1-.4c-1.7 1.5-4.6 2.5-7.7 2.5zM287 38.3c.4-.8.5-1.4.6-2.4-.9.5-2 .8-4.1.8-2.7 0-4-1.2-4-4.2V16.8h6.6l.7-4h-7.3V6l-10.3 10.5v.2h2.8v16.9c0 5.4 2.3 8.4 8.2 8.4 3.4.1 5.8-1.4 6.8-3.7zM313.9 12.6l-8.8.9c.9 2.5 1.2 5 1.2 7.9v13.4c-1.1 1.4-2.9 2.2-5.3 2.2-2.9 0-4-1.6-4-4.6V12.6l-8.8.9c1 2.5 1.2 5 1.2 7.9v11.2c0 5.6 2.3 9.4 8.5 9.4 4.9 0 7.3-2.6 8.5-6.3h.1v5.7h8.6c-.7-2.1-1.2-4.1-1.2-8.6V12.6zM318.7 31.9c0 3.4-.2 6.9-1.1 9.5h9.6c-.7-2.6-1-6.1-1-9.7v-7.1c0-4.4 1.7-6.9 3.2-6.9.6 0 1.1.6 1.7 1.2s1.4 1.2 2.7 1.2c2.3 0 3.6-1.7 3.6-4 0-2.4-1.5-4-4.5-4-3.2 0-5.7 2.1-6.9 7.4v-7.2l-.1-.1-9.4 2.7c1.2 1.3 2.2 3.8 2.2 6.6v10.4zM363.8 38.2c.2-.5.3-1 .5-1.9-.3.3-1.2.4-1.5.4-1.8 0-2.7-.7-2.7-3V21.1c0-6-2.8-9-10.2-9-5.7 0-11.2 2.8-11.2 6.8 0 2 1.5 3.1 3.1 3.1 1.9 0 3-1 3.6-3.8.4-1.9 1.1-2.7 3-2.7 3 0 4 1.6 4 4.9v.6c0 2.9-2.2 4.1-6.3 5.7-4.3 1.7-8.4 3.7-8.4 8.2 0 4.3 3 7.1 7.6 7.1 3.8 0 6.1-1.6 7.4-5.2h.1c.1 2.7 2 5.2 5.6 5.2 3.1.1 4.6-1.5 5.4-3.8zm-11.4-2.3c-.6 1.1-1.3 1.9-3.5 1.9s-3.6-1.6-3.6-4.1c0-3.1 1-4.5 3.7-5.8 2.1-1 2.9-1.5 3.4-2.4v10.4zM365.9 31.9c0 3.4-.2 6.9-1.1 9.5h9.8c-.8-2.6-1.1-6.1-1.1-9.5V8.3c0-1.4.1-5.7.2-8.2l-.1-.1-10 2.7c1.2 1.3 2.2 3.8 2.2 6.6l.1 22.6zM32.5 68.7h-4.9c-.3 3.9-.5 7-1.3 9.6-3-4.2-6.1-8.5-8.4-11.7 5-2 8.7-4.9 8.7-9.2 0-4.2-2.6-7.2-8.8-7.2-6.5 0-10.6 4.6-10.6 10.1 0 2.5.7 5.4 2.7 8.3-4.4 2-9.1 5.1-9.1 10.6C.8 85 4 89.8 12.2 89.8c4.8 0 7.3-2 9.4-4.5 1 1.3 2 2.6 3 3.8h10.2c-3.9-4.4-5.6-6.8-7.5-9.3 2.2-2.4 3.6-5.2 5.2-11.1zM18 53.4c2.2 0 3.4 1.2 3.4 4.5s-.4 5.6-4.3 7.4c-1.5-2.3-2.7-4.8-2.7-7.3-.1-2.9 1.1-4.6 3.6-4.6zm-2.9 32.1c-4.6 0-6.6-4.2-6.6-8.2 0-3.7.9-5.8 2.4-7.4 2.7 4.1 6.3 9.3 9.8 13.8-1.5 1-3.2 1.8-5.6 1.8zM82.6 68.4c0-5.6-1.5-8.6-7.5-8.6-4.6 0-7.3 2.9-8.6 6.4h-.1c-.4-4.1-2.1-6.4-7.3-6.4-4.6 0-7.4 2.9-8.6 6.4h-.2V60l-.1-.1-9.4 2.7c1.2 1.3 2.2 3.8 2.2 6.6v10.3c0 3.4-.2 6.9-1.1 9.5h9.6c-.8-2.5-.9-5.6-.9-9.2V67.1c1.4-1.3 2.5-1.7 4.7-1.7 2.8 0 3.6 1.2 3.6 3.8v10.7c0 3.7-.1 6.7-.9 9.2h9.6c-.8-2.6-1.1-6.1-1.1-9.5V67.1c1.2-1.3 2.5-1.7 4.7-1.7 2.8 0 3.6 1.2 3.6 3.8v10.7c0 3.7-.1 6.7-.9 9.2h9.6c-.8-2.6-1.1-6.1-1.1-9.5V68.4h.2zM99.3 59.8c-7.2 0-13.8 5.8-13.8 15 0 9.5 7 14.9 14.3 14.9 7.2 0 13.8-5.8 13.8-15-.1-9.4-7.1-14.9-14.3-14.9zm.4 26.5c-3.7 0-5.9-2.2-5.9-11.6 0-8.8 2-11.3 5.5-11.3 3.7 0 5.9 2.2 5.9 11.6 0 8.7-2 11.3-5.5 11.3zM124.5 56c0-1.4.1-5.7.2-8.2l-.1-.1-10 2.7c1.2 1.3 2.2 3.8 2.2 6.6v22.6c0 3.4-.2 6.9-1.1 9.5h9.8c-.8-2.6-1.1-6.1-1.1-9.5l.1-23.6zM152.2 73.3c0-8.9-3.4-13.6-10.9-13.6-7.8 0-13.6 6.3-13.6 15.8 0 9.3 6.1 14.2 13.4 14.2 6.4 0 9.8-4 11-8.3l-.2-.5c-1.3 1.3-3.4 3.2-7.9 3.2-5 0-8.7-2.8-8.7-10v-.8h16.9zm-11.1-10c3.2 0 3.9 2.7 4 7.3l-9.6.8c.4-5.5 2.4-8.1 5.6-8.1zM169.8 84.1c-5 0-8.2-3.1-8.2-10.5 0-6.4 2.3-10.3 6-10.3 1.9 0 2.5.4 2.8 2.3.4 2.5 1.3 3.8 3.3 3.8 2.2 0 3.5-1.4 3.5-3.6 0-3-2.8-5.9-9.3-5.9-7 0-13.8 5.6-13.8 15.6 0 9 5.2 14.4 12.9 14.4 6.6 0 9.8-4.5 10.6-7.9l-.1-.4c-1.8 1.5-4.6 2.5-7.7 2.5zM204.5 60.3l-8.9.9c.9 2.5 1.2 5 1.2 7.9v13.4c-1.1 1.4-2.9 2.2-5.3 2.2-2.9 0-4-1.6-4-4.6V60.3l-8.9.9c1 2.5 1.2 5 1.2 7.9v11.2c0 5.6 2.3 9.4 8.5 9.4 4.9 0 7.3-2.6 8.5-6.3h.1v5.7h8.6c-.7-2.1-1.2-4.1-1.2-8.6V60.3h.2zM217 56c0-1.4.1-5.7.2-8.2l-.1-.1-10 2.7c1.2 1.3 2.2 3.8 2.2 6.6v22.6c0 3.4-.2 6.9-1.1 9.5h9.8c-.8-2.6-1.1-6.1-1.1-9.5V56h.1zM242.1 81.5V68.8c0-6-2.8-9-10.2-9-5.7 0-11.2 2.8-11.2 6.8 0 2 1.5 3.1 3.1 3.1 1.9 0 3-1 3.6-3.8.4-1.9 1.1-2.7 3-2.7 3 0 4 1.6 4 4.9v.6c0 2.9-2.2 4.1-6.3 5.7-4.3 1.7-8.4 3.7-8.4 8.2 0 4.3 3 7.1 7.6 7.1 3.8 0 6.1-1.6 7.4-5.2h.1c.1 2.7 2 5.2 5.6 5.2 3.1 0 4.7-1.5 5.5-3.9.2-.5.3-1 .5-1.9-.3.3-1.2.4-1.5.4-1.9.1-2.8-.6-2.8-2.8zm-7.7 2.1c-.6 1.1-1.3 1.9-3.5 1.9s-3.6-1.6-3.6-4.1c0-3.1 1-4.5 3.7-5.8 2.1-1 2.9-1.5 3.4-2.4v10.4zM262.2 59.8c-3.2 0-5.7 2.1-6.9 7.4h-.1V60l-.1-.1-9.4 2.7c1.2 1.3 2.2 3.8 2.2 6.6v10.3c0 3.4-.2 6.9-1.1 9.5h9.6c-.7-2.6-1-6.1-1-9.7v-7.1c0-4.4 1.7-6.9 3.2-6.9.6 0 1.1.6 1.7 1.2s1.4 1.2 2.7 1.2c2.3 0 3.6-1.7 3.6-4 .1-2.3-1.4-3.9-4.4-3.9zM292.7 59.8c-4.3 0-8.1 3.3-9 6.1h-.1V55.4l.2-7.6-.1-.1-9.8 2.6c1.1 1.4 2 3.4 2 7.1V87c3.1 1.5 7 2.7 12.1 2.7 10.5 0 14.8-7.5 14.8-16.1.1-9.6-4.2-13.8-10.1-13.8zM288 86.2c-1.6 0-3.2-.5-4.4-1.5V67.3c.8-1.2 3.1-2.2 5.1-2.2 4.2 0 5.8 2.9 5.8 9.8.1 7-1.6 11.3-6.5 11.3zM314 67.1l.2-7.2-.1-.1-10 2.7c1.2 1.3 2.2 3.8 2.2 6.6v10.3c0 3.4-.2 6.9-1.1 9.5h9.8c-.8-2.6-1.1-6.1-1.1-9.5V67.1h.1zM314.5 53.6c0-2.5-1.9-4.6-4.7-4.6-2.7 0-4.6 2-4.6 4.6 0 2.5 1.9 4.6 4.6 4.6 2.8 0 4.7-2.1 4.7-4.6zM331.1 59.8c-7.2 0-13.8 5.8-13.8 15 0 9.5 7 14.9 14.3 14.9 7.2 0 13.8-5.8 13.8-15-.1-9.4-7.1-14.9-14.3-14.9zm.4 26.5c-3.7 0-5.9-2.2-5.9-11.6 0-8.8 2-11.3 5.5-11.3 3.7 0 5.9 2.2 5.9 11.6 0 8.7-2 11.3-5.5 11.3zM356.3 56c0-1.4.1-5.7.2-8.2l-.1-.1-10 2.7c1.2 1.3 2.2 3.8 2.2 6.6v22.6c0 3.4-.2 6.9-1.1 9.5h9.8c-.8-2.6-1.1-6.1-1.1-9.5V56h.1zM373.4 59.8c-7.2 0-13.8 5.8-13.8 15 0 9.5 7 14.9 14.3 14.9 7.2 0 13.8-5.8 13.8-15 0-9.4-7-14.9-14.3-14.9zm.5 26.5c-3.7 0-5.9-2.2-5.9-11.6 0-8.8 2-11.3 5.5-11.3 3.7 0 5.9 2.2 5.9 11.6 0 8.7-2 11.3-5.5 11.3zM436.8 60.4c.7 2.2.4 4.5-.5 7l-3.9 11.8h-.1l-3.8-11.5c-1.1-3.2-1.6-5.1-1.3-7.3h-8c-.6-1.2-1.9-1.9-3.8-1.9-1.6 0-4.2 1.2-5.6 3.7h-.2c-2-1.6-5-2.4-7.9-2.4-6.1 0-11.7 3.6-11.7 10.3 0 3.9 2.4 6.7 5.8 8.2v.2c-2.9.8-5 2.7-5 5.7 0 3.1 2.4 5.3 5.2 5.8v.2c-4 .6-7.3 2-7.3 4.6 0 3 3.8 5.5 13 5.5 9.9 0 16.1-3.8 16.1-10.8 0-4.6-2.8-6.6-7.5-6.6-3.4 0-8.6.3-12 .3-1.8 0-2.6-.8-2.6-2 0-1 .3-1.7 1.2-2.3 1.5.5 3.2.7 4.9.7 6.1 0 11.7-3.6 11.7-10.3 0-2.3-1-4.5-2.6-6.4.4-.3.9-.4 1.4-.4 1.1 0 1.5.6 2 1.2s1.1 1.4 2.5 1.4c1 0 1.7-.4 2.2-1.1.6 1.3 1.2 2.7 1.9 4.5l7.6 19.8c-1.2 3.7-3.3 6.9-4.8 6.9-1.1 0-1.7-1.4-3.5-1.4-1.7 0-2.9 1.1-2.9 2.9 0 2.1 1.5 3.4 4.2 3.4 5.1 0 8.8-4.3 12.7-15l6-16.3c1.4-3.8 2.8-6.3 4-8.5h-7.4v.1zM397 90.6c1.4-.2 8.4-.5 11.4-.5 2.3 0 3.4.6 3.4 2.3 0 2.4-3 4.7-10.3 4.7-4.7 0-6.7-1.5-6.7-3.8 0-1.3.9-2.6 2.2-2.7zm4.7-14.2c-2.8 0-4.7-2.2-4.7-6.4 0-4.9 1.6-6.8 4.5-6.8 2.7 0 4.6 2.2 4.6 6.4 0 4.8-1.6 6.8-4.4 6.8z"/></svg>