<?xml version="1.0" encoding="utf-8"?>
<!-- Generator: Adobe Illustrator 16.0.4, SVG Export Plug-In . SVG Version: 6.00 Build 0)  -->
<!DOCTYPE svg PUBLIC "-//W3C//DTD SVG 1.1//EN" "http://www.w3.org/Graphics/SVG/1.1/DTD/svg11.dtd">
<svg version="1.1" id="Layer_1" xmlns="http://www.w3.org/2000/svg" xmlns:xlink="http://www.w3.org/1999/xlink" x="0px" y="0px"
	 width="173.33px" height="32px" viewBox="0 0 173.33 32" enable-background="new 0 0 173.33 32" xml:space="preserve">
<path fill="#FFFFFF" d="M158.041,17.689c0.338-2.957,1.858-4.73,4.646-4.73c1.943,0,4.224,1.098,4.562,4.73H158.041z
	 M166.995,24.531c-0.508,1.605-2.196,2.449-3.801,2.449c-4.815,0-5.153-3.801-5.322-5.49h15.458v-1.014
	c0-10.305-6.167-12.417-10.559-12.417c-9.883,0-10.812,8.7-10.812,11.403c0,9.207,4.898,12.248,11.234,12.248
	c3.885,0,8.361-1.773,9.883-7.18H166.995z M137.685,31.12h5.912V19.463c0-2.533,0.846-5.406,5.49-5.406c0.592,0,1.184,0,1.689,0.084
	V8.145c-0.422,0-0.76-0.084-1.182-0.084c-3.633,0-4.984,2.196-6.166,4.477h-0.085V8.651h-5.659V31.12z M133.884,8.651h-5.914v12.924
	c0,4.054-2.618,5.067-4.561,5.067c-1.858,0-3.886-0.676-3.886-4.139V8.651h-5.913v14.782c0,5.744,3.21,8.277,7.688,8.277
	c3.125,0,5.49-1.352,6.842-3.717h0.084v3.211h5.66V8.651z M107.782,2.569h-5.913v6.082h-3.04v4.223h3.04v13.6
	c0,2.956,0.929,4.814,6.082,4.814h0.761c0.929,0,1.857,0,2.787-0.084v-4.478c-0.422,0-0.845,0.085-1.268,0.085
	c-2.449,0-2.449-0.508-2.449-1.859V12.875h3.717V8.651h-3.717V2.569z M92.747,22.926c0,1.014-1.014,3.971-4.055,3.971
	c-4.477,0-4.562-4.899-4.562-7.349c0-2.788,1.014-6.504,4.73-6.504c2.787-0.169,3.716,2.196,3.97,3.632h5.998
	c-0.592-7.011-6.42-8.616-9.968-8.616c-7.603,0-10.812,5.237-10.812,12.501c0,4.729,1.943,11.149,10.389,11.149
	c8.278,0,10.053-6.504,10.306-8.785H92.747z M75.515,8.651h-5.913v12.924c0,4.054-2.619,5.067-4.562,5.067
	c-1.858,0-3.886-0.676-3.886-4.139V8.651h-5.913v14.782c0,5.744,3.21,8.277,7.687,8.277c3.125,0,5.491-1.352,6.842-3.717h0.084
	v3.211h5.66V8.651L75.515,8.651z M39.954,31.12h5.913V19.463c0-2.533,0.845-5.406,5.49-5.406c0.591,0,1.183,0,1.689,0.084V8.145
	c-0.422,0-0.76-0.084-1.183-0.084c-3.632,0-4.983,2.196-6.166,4.477h-0.084V8.651h-5.66V31.12z M34.294,2.569h-5.913v6.082h-3.041
	v4.223h3.041v13.6c0,2.956,0.929,4.814,6.082,4.814h0.76c0.929,0,1.858,0,2.787-0.084v-4.478c-0.422,0-0.844,0.085-1.267,0.085
	c-2.45,0-2.45-0.508-2.45-1.859V12.875h3.716V8.651h-3.716V2.569z M0,21.828c0,3.801,1.943,10.137,13.008,10.137
	c2.703,0,11.995-0.76,11.995-9.968c0-5.405-3.801-7.095-7.94-8.193L9.629,12.03c-1.267-0.338-3.21-0.844-3.21-3.209
	c0-2.703,2.872-3.632,5.322-3.632c5.575,0,6.082,3.21,6.25,4.562h6.082c-0.169-3.632-2.619-9.714-11.91-9.714
	c-9.883,0-11.657,5.913-11.657,9.292c0,6.673,4.73,7.771,9.629,8.954l3.294,0.76c3.209,0.76,5.49,1.352,5.49,3.717
	c0,3.209-3.378,3.97-6.335,3.97c-5.575,0-6.42-3.21-6.42-4.899H0z"/>
</svg>
